<?xml version="1.0" encoding="UTF-8" standalone="no"?><!DOCTYPE svg PUBLIC "-//W3C//DTD SVG 1.1//EN" "http://www.w3.org/Graphics/SVG/1.1/DTD/svg11.dtd"><svg width="100%" height="100%" viewBox="0 0 230 71" version="1.1" xmlns="http://www.w3.org/2000/svg" xmlns:xlink="http://www.w3.org/1999/xlink" xml:space="preserve" xmlns:serif="http://www.serif.com/" style="fill-rule:evenodd;clip-rule:evenodd;stroke-linejoin:round;stroke-miterlimit:2;"><rect id="Artboard1" x="0" y="0" width="229.032" height="70.311" style="fill:none;"/><g id="Layer-1" serif:id="Layer 1"><path d="M18.661,47.245c-3.656,5.26 -8.154,6.116 -10.9,6.116c-3.986,0 -7.108,-2.391 -7.108,-7.971c0,-1.261 0.199,-2.722 0.532,-4.316l7.107,-33.277l9.83,-1.329l-7.639,35.868c-0.199,0.863 -0.265,1.527 -0.265,2.125c0,1.859 0.864,2.459 2.723,2.459c2.015,0 3.908,-1.527 5.119,-3.767c-0.003,-0.159 -0.005,-0.321 -0.005,-0.484c-0,-8.968 5.513,-23.248 17.07,-23.248c3.786,-0 5.38,1.461 5.38,3.387l-0,0.465l0.731,-3.52l9.565,-0l-4.782,22.584c-0.199,0.863 -0.266,1.527 -0.266,2.124c-0,1.86 0.863,2.858 2.723,2.858c1.969,-0 3.477,-1.689 4.525,-3.957c-0.008,-0.227 -0.012,-0.458 -0.012,-0.693c0,-8.968 5.513,-23.248 17.07,-23.248c3.786,-0 5.38,1.461 5.38,3.387l0,0.399l0.731,-3.454l9.565,-0l-6.576,30.819c4.047,-1.459 6.504,-3.712 8.362,-9.474c0.002,-0.008 0.003,-0.016 0.005,-0.024l4.516,-21.322l9.566,0l-4.783,22.584c-0.133,0.664 -0.2,1.262 -0.2,1.859c-0,1.527 0.533,2.724 1.993,2.724c2.59,0 4.318,-2.525 5.314,-5.845l4.517,-21.322l9.564,0l-4.782,22.584c-0.199,0.863 -0.266,1.527 -0.266,2.124c-0,1.86 0.863,2.459 2.724,2.459c2.581,0 4.371,-2.507 5.369,-5.81c0.003,-0.012 0.005,-0.023 0.008,-0.035l4.517,-21.322l9.564,0l-4.783,22.584c-0.199,0.863 -0.266,1.527 -0.266,2.124c-0,1.86 0.863,2.459 2.725,2.459c2.576,0 4.954,-2.497 5.959,-5.791l4.532,-21.375l9.565,-0l-0.731,3.454c2.791,-3.189 5.713,-3.72 7.772,-3.72c4.252,-0 7.373,2.192 7.373,7.506c0,5.38 -3.188,13.418 -3.188,17.136c0,1.66 0.664,2.791 2.657,2.791c2.333,-0 3.567,-1.526 4.714,-3.9c-0.001,-0.073 -0.001,-0.146 -0.001,-0.219c-0,-7.639 4.319,-23.647 17.934,-23.647c5.912,0 7.306,3.056 7.306,6.377c-0,7.638 -7.306,13.551 -15.277,14.016c-0.066,0.93 -0.133,1.859 -0.133,2.656c-0,4.517 1.594,5.58 4.783,5.58c5.245,0 8.434,-2.923 11.753,-6.707c0.001,-0 0.001,-0.001 0.001,-0.002l4.516,-21.322l9.564,0l-4.781,22.584c-0.133,0.531 -0.199,1.129 -0.199,1.66c-0,1.527 0.464,2.923 1.992,2.923c2.59,0 4.318,-2.525 5.314,-5.845l4.516,-21.322l9.564,0l-4.781,22.584c-0.199,0.863 -0.266,1.527 -0.266,2.124c-0,1.86 0.864,2.459 2.723,2.459c1.262,0 1.594,-0.199 2.191,-0.4c-0.332,4.783 -3.785,6.841 -7.373,6.841c-3.652,0 -6.043,-2.39 -6.507,-6.308c-3.323,5.445 -7.108,6.308 -9.897,6.308c-3.986,0 -7.107,-2.39 -7.107,-7.97c-0,-0.11 0.001,-0.221 0.004,-0.334c-3.641,4.551 -8.592,8.305 -15.479,8.305c-4.724,0 -8.231,-1.749 -9.659,-5.851c-3.185,5.058 -6.746,5.851 -9.4,5.851c-5.779,-0 -7.838,-3.719 -7.838,-7.505c0,-4.515 2.989,-12.686 2.989,-16.937c0,-2.192 -0.797,-3.387 -2.391,-3.387c-2.393,-0 -4.186,2.789 -5.182,6.11l-4.515,21.321l-9.567,-0l0.829,-3.909c-3.34,3.655 -7.067,4.306 -9.461,4.306c-3.435,0 -6.228,-1.775 -6.934,-5.839c-3.452,5.013 -7.502,5.839 -10.199,5.839c-3.786,0 -6.178,-2.191 -6.576,-6.308c-3.321,5.445 -7.041,6.308 -9.83,6.308c-3.381,0 -6.141,-1.72 -6.901,-5.648c-2.597,3.596 -5.834,5.012 -8.64,5.782l-0.996,4.783c-1.993,9.498 -7.572,11.291 -11.956,11.291c-4.052,-0 -7.439,-2.125 -7.439,-6.443c0,-5.578 5.845,-8.369 10.827,-9.897l0.797,-3.519c-1.926,2.058 -4.517,3.652 -7.971,3.652c-3.479,-0 -6.84,-1.655 -8.2,-6.028c-3.481,5.181 -7.597,6.028 -10.328,6.028c-3.72,-0 -6.11,-2.125 -6.51,-6.109c-2.058,3.054 -5.18,6.109 -9.896,6.109c-3.503,-0 -6.885,-1.677 -8.228,-6.116Zm171.279,-24.57c-3.387,0 -6.641,7.107 -7.971,13.682c5.116,-0.332 9.633,-5.446 9.633,-10.958c-0,-1.662 -0.4,-2.724 -1.662,-2.724Zm-125.858,41.713c1.394,-0 2.988,-1.994 3.852,-5.912l0.399,-1.925c-3.388,1.261 -6.51,2.988 -6.51,5.644c0,0.93 0.797,2.193 2.259,2.193Zm-1.263,-22.649c0,5.115 2.126,5.181 3.321,5.181c1.794,-0 4.384,-1.795 5.314,-5.181l3.387,-15.742c-0.066,-0.732 -0.597,-2.458 -2.722,-2.458c-5.647,-0 -9.3,11.955 -9.3,18.2Zm-34.934,-0c-0,5.115 2.126,5.181 3.321,5.181c1.927,-0 4.716,-1.994 5.513,-5.845l3.188,-15.012c-0,-0.798 -0.597,-2.524 -2.722,-2.524c-5.647,-0 -9.3,11.955 -9.3,18.2Z" style="fill:none;stroke:#fff;stroke-width:0.7px;"/><path d="M137.486,6.059c0,3.038 -2.463,5.5 -5.5,5.5c-3.037,-0 -5.5,-2.462 -5.5,-5.5c0,-3.038 2.463,-5.5 5.5,-5.5c3.037,-0 5.5,2.462 5.5,5.5" style="fill:none;fill-rule:nonzero;stroke:#fff;stroke-width:0.7px;"/></g></svg>